<?xml version="1.0" encoding="utf-8"?>
<!-- Generator: Adobe Illustrator 23.0.3, SVG Export Plug-In . SVG Version: 6.00 Build 0)  -->
<svg version="1.1" id="Capa_1" xmlns="http://www.w3.org/2000/svg" xmlns:xlink="http://www.w3.org/1999/xlink" x="0px" y="0px"
	 viewBox="0 0 154 49.9" style="enable-background:new 0 0 154 49.9;" xml:space="preserve">
<style type="text/css">
	.st0{fill:#FCFCFC;}
</style>
<g id="XMLID_2226_">
	<g id="XMLID_11319_">
		<g id="XMLID_25_">
			<path id="XMLID_26_" class="st0" d="M63.7,38.4c-1,0-1.8-0.8-1.8-1.8v-4.9c0-3.2,2.6-5.8,5.8-5.8h26.5c1.5,0,2.7-1.2,2.7-2.7
				s-1.2-2.7-2.7-2.7H63.7c-1,0-1.8-0.8-1.8-1.8s0.8-1.8,1.8-1.8h30.5c3.5,0,6.3,2.8,6.3,6.3s-2.8,6.3-6.3,6.3H67.7
				c-1.2,0-2.3,1-2.3,2.3v4.9C65.5,37.6,64.7,38.4,63.7,38.4z"/>
		</g>
	</g>
	<path id="XMLID_11318_" class="st0" d="M56.3,35.2c-2.8-2.6-5.8-4.5-8.7-5.9h2.2c3.5,0,6.3-2.8,6.3-6.3s-2.8-6.3-6.3-6.3H19.3
		c-1,0-1.8,0.8-1.8,1.8s0.8,1.8,1.8,1.8h30.5c1.5,0,2.7,1.2,2.7,2.7s-1.2,2.7-2.7,2.7H32.9c-0.9,0-1.6,0-1.8,0h-7.8
		c-3.2,0-5.8,2.6-5.8,5.8v4.9c0,1,0.8,1.8,1.8,1.8s1.8-0.8,1.8-1.8v-4.9c0-1.2,1-2.3,2.3-2.3h9.3c3.5,0.1,13.3,1.1,21.3,8.5
		c0.3,0.3,0.8,0.5,1.2,0.5c0.5,0,1-0.2,1.3-0.6C57.1,37,57,35.9,56.3,35.2z"/>
	<path id="XMLID_11304_" class="st0" d="M131.3,27.5c4.2-1.3,8.9-3.6,13.3-7.7c0.7-0.7,0.8-1.8,0.1-2.5s-1.8-0.8-2.5-0.1
		c-8,7.4-17.8,8.4-21.3,8.5c-0.8,0-1.3,0-1.5,0h-9.5v-7.2c0-1-0.8-1.8-1.8-1.8s-1.8,0.8-1.8,1.8v17.9c0,1,0.8,1.8,1.8,1.8
		s1.8-0.8,1.8-1.8v-7.2h9.7c0.2,0,0.4,0,0.7,0c0.2,0,0.4,0,0.7,0c3.5,0.1,13.2,1.1,21.2,8.5c0.3,0.3,0.8,0.5,1.2,0.5
		c0.5,0,1-0.2,1.3-0.6c0.7-0.7,0.6-1.9-0.1-2.5C140.2,31.2,135.4,28.9,131.3,27.5z"/>
	<g id="XMLID_4978_">
		<g id="XMLID_350_">
			<path id="XMLID_395_" class="st0" d="M79.1,41.9c0.1,0,0.2,0,0.3,0.1c0.1,0.1,0.1,0.2,0.1,0.3s0,0.2-0.1,0.3s-0.2,0.1-0.3,0.1
				c-0.1,0-0.2,0-0.3-0.1c-0.1-0.1-0.1-0.2-0.1-0.3s0-0.2,0.1-0.3C78.9,42,79,41.9,79.1,41.9z M78.8,43.7h0.6v4.4h-0.6V43.7z"/>
			<path id="XMLID_393_" class="st0" d="M80.6,43.7h0.6v0.8c0.2-0.3,0.5-0.5,0.8-0.7s0.6-0.2,0.9-0.2s0.6,0.1,0.9,0.3
				s0.4,0.4,0.6,0.7s0.2,0.7,0.2,1.3v2.3H84v-2.1c0-0.5,0-0.9-0.1-1c-0.1-0.3-0.2-0.5-0.4-0.7c-0.2-0.1-0.4-0.2-0.7-0.2
				c-0.3,0-0.7,0.1-0.9,0.3c-0.3,0.2-0.5,0.5-0.5,0.8c-0.1,0.2-0.1,0.6-0.1,1.2v1.6h-0.6v-4.4H80.6z"/>
			<path id="XMLID_391_" class="st0" d="M85.3,45.7h2.2v0.5h-2.2V45.7z"/>
			<path id="XMLID_389_" class="st0" d="M90.7,44.2l-0.4,0.4c-0.3-0.3-0.6-0.4-0.9-0.4c-0.2,0-0.3,0.1-0.5,0.2
				c-0.1,0.1-0.2,0.3-0.2,0.4c0,0.1,0.1,0.3,0.2,0.4c0.1,0.1,0.3,0.3,0.7,0.5c0.4,0.2,0.7,0.4,0.9,0.6c0.1,0.2,0.2,0.4,0.2,0.7
				c0,0.4-0.1,0.7-0.4,0.9c-0.3,0.3-0.6,0.4-1,0.4c-0.3,0-0.5-0.1-0.7-0.2c-0.2-0.1-0.4-0.3-0.6-0.5l0.4-0.4
				c0.3,0.3,0.6,0.5,0.9,0.5c0.2,0,0.4-0.1,0.6-0.2c0.2-0.1,0.2-0.3,0.2-0.5s-0.1-0.3-0.2-0.4c-0.1-0.1-0.3-0.3-0.7-0.5
				c-0.4-0.2-0.7-0.4-0.8-0.6c-0.1-0.2-0.2-0.4-0.2-0.7s0.1-0.6,0.3-0.8c0.2-0.2,0.5-0.3,0.9-0.3C89.9,43.6,90.3,43.8,90.7,44.2z"/>
			<path id="XMLID_387_" class="st0" d="M92.2,42.1h0.6v1.7h0.9v0.5h-0.9v4h-0.6v-4h-0.8v-0.5h0.8V42.1z"/>
			<path id="XMLID_384_" class="st0" d="M96.7,43.6c0.7,0,1.3,0.2,1.7,0.7c0.4,0.5,0.6,1,0.6,1.6s-0.2,1.2-0.6,1.6
				c-0.4,0.5-1,0.7-1.7,0.7S95.5,48,95,47.5c-0.4-0.5-0.6-1-0.6-1.6s0.2-1.1,0.6-1.6C95.4,43.9,96,43.6,96.7,43.6z M96.7,44.2
				c-0.5,0-0.9,0.2-1.2,0.5C95.2,45.1,95,45.5,95,46c0,0.3,0.1,0.6,0.2,0.9c0.2,0.3,0.4,0.5,0.6,0.6c0.3,0.2,0.6,0.2,0.9,0.2
				s0.6-0.1,0.9-0.2c0.3-0.2,0.5-0.4,0.6-0.6c0.2-0.3,0.2-0.6,0.2-0.9c0-0.5-0.2-0.9-0.5-1.3C97.5,44.4,97.1,44.2,96.7,44.2z"/>
			<path id="XMLID_382_" class="st0" d="M99.8,43.7h0.6v0.6c0.2-0.3,0.4-0.4,0.6-0.6c0.2-0.1,0.4-0.2,0.6-0.2s0.3,0.1,0.5,0.2
				l-0.3,0.5c-0.1-0.1-0.2-0.1-0.3-0.1c-0.2,0-0.4,0.1-0.6,0.2c-0.2,0.2-0.3,0.4-0.4,0.7s-0.1,0.8-0.1,1.5V48h-0.6
				C99.8,48,99.8,43.7,99.8,43.7z"/>
			<path id="XMLID_379_" class="st0" d="M106.3,46.7l0.5,0.3c-0.2,0.3-0.3,0.6-0.5,0.8s-0.4,0.3-0.7,0.4c-0.3,0.1-0.6,0.1-0.9,0.1
				c-0.7,0-1.3-0.2-1.7-0.7c-0.4-0.5-0.6-1-0.6-1.6s0.2-1.1,0.5-1.5c0.4-0.6,1-0.8,1.8-0.8s1.4,0.3,1.8,0.9c0.3,0.4,0.5,0.9,0.5,1.5
				h-4c0,0.5,0.2,0.9,0.5,1.3c0.3,0.3,0.7,0.5,1.2,0.5c0.2,0,0.4,0,0.7-0.1c0.2-0.1,0.4-0.2,0.5-0.3C105.9,47.2,106.1,47,106.3,46.7
				z M106.3,45.5c-0.1-0.3-0.2-0.5-0.3-0.7c-0.1-0.2-0.3-0.3-0.6-0.4c-0.2-0.1-0.5-0.2-0.8-0.2c-0.4,0-0.8,0.1-1.1,0.4
				c-0.2,0.2-0.4,0.5-0.5,0.9H106.3z"/>
			<path id="XMLID_376_" class="st0" d="M114.7,43.7v4.4h-0.6v-0.8c-0.2,0.3-0.5,0.5-0.8,0.7c-0.3,0.1-0.6,0.2-1,0.2
				c-0.6,0-1.2-0.2-1.6-0.7s-0.7-1-0.7-1.7c0-0.6,0.2-1.2,0.7-1.6c0.4-0.5,1-0.7,1.6-0.7c0.4,0,0.7,0.1,1,0.2
				c0.3,0.2,0.6,0.4,0.8,0.7v-0.8L114.7,43.7L114.7,43.7z M112.4,44.2c-0.3,0-0.6,0.1-0.9,0.2c-0.3,0.2-0.5,0.4-0.6,0.7
				c-0.2,0.3-0.2,0.6-0.2,0.9c0,0.3,0.1,0.6,0.2,0.9c0.2,0.3,0.4,0.5,0.6,0.7c0.3,0.2,0.6,0.2,0.9,0.2s0.6-0.1,0.9-0.2
				c0.3-0.2,0.5-0.4,0.6-0.6c0.2-0.3,0.2-0.6,0.2-0.9c0-0.5-0.2-0.9-0.5-1.3C113.3,44.4,112.9,44.2,112.4,44.2z"/>
			<path id="XMLID_373_" class="st0" d="M120.4,42v6.2h-0.6v-0.8c-0.2,0.3-0.5,0.5-0.8,0.7c-0.3,0.1-0.6,0.2-1,0.2
				c-0.6,0-1.2-0.2-1.6-0.7s-0.7-1-0.7-1.7c0-0.6,0.2-1.2,0.7-1.6c0.4-0.5,1-0.7,1.6-0.7c0.4,0,0.7,0.1,1,0.2
				c0.3,0.2,0.6,0.4,0.8,0.7V42H120.4z M118.2,44.2c-0.3,0-0.6,0.1-0.9,0.2c-0.3,0.2-0.5,0.4-0.6,0.7c-0.2,0.3-0.2,0.6-0.2,0.9
				c0,0.3,0.1,0.6,0.2,0.9c0.2,0.3,0.4,0.5,0.6,0.7c0.3,0.2,0.6,0.2,0.9,0.2s0.6-0.1,0.9-0.2c0.3-0.2,0.5-0.4,0.6-0.6
				s0.2-0.6,0.2-0.9c0-0.5-0.2-0.9-0.5-1.3C119.1,44.4,118.6,44.2,118.2,44.2z"/>
			<path id="XMLID_371_" class="st0" d="M121.3,43.7h0.6l1.5,3.2l1.5-3.2h0.6l-2,4.4h-0.1L121.3,43.7z"/>
			<path id="XMLID_368_" class="st0" d="M130.1,46.7l0.5,0.3c-0.2,0.3-0.3,0.6-0.5,0.8s-0.4,0.3-0.7,0.4c-0.3,0.1-0.6,0.1-0.9,0.1
				c-0.7,0-1.3-0.2-1.7-0.7c-0.4-0.5-0.6-1-0.6-1.6s0.2-1.1,0.5-1.5c0.4-0.6,1-0.8,1.8-0.8c0.8,0,1.4,0.3,1.8,0.9
				c0.3,0.4,0.5,0.9,0.5,1.5h-4c0,0.5,0.2,0.9,0.5,1.3c0.3,0.3,0.7,0.5,1.2,0.5c0.2,0,0.4,0,0.7-0.1c0.2-0.1,0.4-0.2,0.5-0.3
				C129.8,47.2,129.9,47,130.1,46.7z M130.1,45.5c-0.1-0.3-0.2-0.5-0.3-0.7s-0.3-0.3-0.6-0.4c-0.2-0.1-0.5-0.2-0.8-0.2
				c-0.4,0-0.8,0.1-1.1,0.4c-0.2,0.2-0.4,0.5-0.5,0.9H130.1z"/>
			<path id="XMLID_366_" class="st0" d="M131.6,43.7h0.6v0.6c0.2-0.3,0.4-0.4,0.6-0.6c0.2-0.1,0.4-0.2,0.6-0.2
				c0.2,0,0.3,0.1,0.5,0.2l-0.3,0.5c-0.1-0.1-0.2-0.1-0.3-0.1c-0.2,0-0.4,0.1-0.6,0.2c-0.2,0.2-0.3,0.4-0.4,0.7
				c-0.1,0.3-0.1,0.8-0.1,1.5V48h-0.6V43.7z"/>
			<path id="XMLID_364_" class="st0" d="M134.8,42.1h0.6v1.7h0.9v0.5h-0.9v4h-0.6v-4H134v-0.5h0.8V42.1z"/>
			<path id="XMLID_361_" class="st0" d="M137.4,41.9c0.1,0,0.2,0,0.3,0.1s0.1,0.2,0.1,0.3s0,0.2-0.1,0.3s-0.2,0.1-0.3,0.1
				s-0.2,0-0.3-0.1s-0.1-0.2-0.1-0.3s0-0.2,0.1-0.3C137.1,42,137.2,41.9,137.4,41.9z M137.1,43.7h0.6v4.4h-0.6V43.7z"/>
			<path id="XMLID_359_" class="st0" d="M141.1,44.2l-0.4,0.4c-0.3-0.3-0.6-0.4-0.9-0.4c-0.2,0-0.3,0.1-0.5,0.2
				c-0.1,0.1-0.2,0.3-0.2,0.4c0,0.1,0.1,0.3,0.2,0.4c0.1,0.1,0.3,0.3,0.7,0.5s0.7,0.4,0.9,0.6c0.1,0.2,0.2,0.4,0.2,0.7
				c0,0.4-0.1,0.7-0.4,0.9c-0.3,0.3-0.6,0.4-1,0.4c-0.3,0-0.5-0.1-0.7-0.2c-0.2-0.1-0.4-0.3-0.6-0.5l0.4-0.4
				c0.3,0.3,0.6,0.5,0.9,0.5c0.2,0,0.4-0.1,0.6-0.2c0.2-0.1,0.2-0.3,0.2-0.5s-0.1-0.3-0.2-0.4c-0.1-0.1-0.3-0.3-0.7-0.5
				s-0.7-0.4-0.8-0.6c-0.1-0.2-0.2-0.4-0.2-0.7s0.1-0.6,0.3-0.8s0.5-0.3,0.9-0.3C140.3,43.6,140.7,43.8,141.1,44.2z"/>
			<path id="XMLID_356_" class="st0" d="M142.3,41.9c0.1,0,0.2,0,0.3,0.1s0.1,0.2,0.1,0.3s0,0.2-0.1,0.3s-0.2,0.1-0.3,0.1
				s-0.2,0-0.3-0.1s-0.1-0.2-0.1-0.3s0-0.2,0.1-0.3C142.1,42,142.2,41.9,142.3,41.9z M142,43.7h0.6v4.4H142V43.7z"/>
			<path id="XMLID_354_" class="st0" d="M143.8,43.7h0.6v0.8c0.2-0.3,0.5-0.5,0.8-0.7s0.6-0.2,0.9-0.2c0.3,0,0.6,0.1,0.9,0.3
				c0.3,0.2,0.4,0.4,0.6,0.7s0.2,0.7,0.2,1.3v2.3h-0.6v-2.1c0-0.5,0-0.9-0.1-1c-0.1-0.3-0.2-0.5-0.4-0.7c-0.2-0.1-0.4-0.2-0.7-0.2
				s-0.7,0.1-0.9,0.3c-0.3,0.2-0.5,0.5-0.5,0.8c-0.1,0.2-0.1,0.6-0.1,1.2v1.6h-0.6L143.8,43.7L143.8,43.7z"/>
			<path id="XMLID_351_" class="st0" d="M152.7,43.7h0.6v3.5c0,0.6-0.1,1.1-0.2,1.4c-0.1,0.4-0.4,0.7-0.8,0.9
				c-0.4,0.2-0.8,0.3-1.3,0.3c-0.4,0-0.7-0.1-1-0.2c-0.3-0.1-0.6-0.3-0.7-0.4c-0.2-0.2-0.4-0.4-0.5-0.8h0.6c0.2,0.3,0.4,0.5,0.7,0.7
				c0.3,0.1,0.6,0.2,1,0.2s0.7-0.1,1-0.2c0.3-0.1,0.5-0.3,0.6-0.5s0.2-0.6,0.2-1.1v-0.2c-0.2,0.3-0.5,0.5-0.8,0.6s-0.6,0.2-1,0.2
				s-0.8-0.1-1.2-0.3s-0.6-0.5-0.8-0.8s-0.3-0.7-0.3-1.1c0-0.4,0.1-0.8,0.3-1.2s0.5-0.6,0.8-0.8c0.4-0.2,0.7-0.3,1.1-0.3
				c0.3,0,0.6,0.1,0.9,0.2c0.3,0.1,0.6,0.4,0.8,0.7L152.7,43.7L152.7,43.7z M151,44.2c-0.3,0-0.6,0.1-0.9,0.2
				c-0.3,0.2-0.5,0.4-0.7,0.6c-0.2,0.3-0.2,0.6-0.2,0.9c0,0.5,0.2,0.9,0.5,1.2s0.8,0.5,1.3,0.5s0.9-0.2,1.3-0.5
				c0.3-0.3,0.5-0.7,0.5-1.2c0-0.3-0.1-0.6-0.2-0.9c-0.1-0.3-0.4-0.5-0.6-0.6C151.6,44.3,151.3,44.2,151,44.2z"/>
		</g>
	</g>
	<g id="XMLID_2489_">
		<g id="XMLID_49_">
			<path id="XMLID_50_" class="st0" d="M154,35.1c0,0.6-0.1,1.1-0.4,1.6c-0.3,0.5-0.7,0.9-1.2,1.2s-1,0.4-1.6,0.4s-1.1-0.1-1.6-0.4
				c-0.5-0.3-0.9-0.7-1.2-1.2s-0.4-1-0.4-1.6s0.1-1.1,0.4-1.6c0.3-0.5,0.7-0.9,1.2-1.2s1-0.4,1.6-0.4s1.1,0.1,1.6,0.4
				s0.9,0.7,1.2,1.2C153.9,34.1,154,34.6,154,35.1z M153.6,35.2c0-0.5-0.1-1-0.4-1.4c-0.2-0.4-0.6-0.8-1-1s-0.9-0.4-1.4-0.4
				s-1,0.1-1.4,0.4c-0.4,0.2-0.8,0.6-1,1s-0.4,0.9-0.4,1.4s0.1,1,0.4,1.4c0.2,0.4,0.6,0.8,1,1s0.9,0.4,1.4,0.4s0.9-0.1,1.4-0.4
				c0.4-0.2,0.8-0.6,1-1S153.6,35.7,153.6,35.2z M149.5,33.3h1.5c0.4,0,0.6,0,0.8,0.1s0.3,0.2,0.4,0.4c0.1,0.2,0.1,0.4,0.1,0.6
				c0,0.2,0,0.4-0.1,0.5s-0.2,0.2-0.4,0.3c0.2,0.1,0.3,0.2,0.3,0.3c0.1,0.1,0.1,0.3,0.1,0.6v0.4c0,0.2,0,0.4,0.1,0.5l0.1,0.1h-0.7
				c0-0.2-0.1-0.3-0.1-0.5v-0.5c0-0.2,0-0.3-0.1-0.4c0-0.1-0.1-0.1-0.2-0.1c-0.1,0-0.2,0-0.5,0H150V37h-0.6v-3.7H149.5z M150,33.8
				v1.1h0.9c0.3,0,0.5,0,0.6-0.1s0.2-0.2,0.2-0.5c0-0.2-0.1-0.3-0.2-0.4s-0.3-0.1-0.6-0.1H150z"/>
		</g>
	</g>
	<g id="XMLID_2237_">
		<g id="XMLID_18_">
			<path id="XMLID_19_" class="st0" d="M7.4,31.2c-3.6,0-6.5-2.9-6.5-6.5V7.4c0-3.6,2.9-6.5,6.5-6.5h30.2c3.6,0,6.5,2.9,6.5,6.5v4.5
				c0,0.2,0.2,0.4,0.4,0.4l0,0c0.2,0,0.4-0.2,0.4-0.4V7.4c0-4.1-3.3-7.4-7.4-7.4H7.4C3.3,0,0,3.3,0,7.4v17.4c0,4.1,3.3,7.4,7.4,7.4
				h6.1c0.2,0,0.4-0.2,0.4-0.4l0,0c0-0.2-0.2-0.4-0.4-0.4H7.4V31.2z"/>
		</g>
	</g>
</g>
</svg>
